# xmcd CD database file
#
# Track frame offsets:
#	150
#	13625
#	27800
#	40602
#	53452
#	65512
#	76835
#	88607
#	99910
#	110662
#	123200
#	135022
#	148417
#	161105
#	172400
#	184605
#	194960
#	204810
#	214932
#	226747
#	238545
#	251337
#	262465
#	274850
#	287387
#	299215
#	311225
#
# Disc length: 4285 seconds
#
# Revision: 3
# Processed by: cddbd v1.5.2PL0 Copyright (c) Steve Scherf et al.
# Submitted via: CDex 1.99.1
#
DISCID=8d10bb1b
DTITLE=Various Artist - Texas Blues - Bill Quinn's Gold Star Recordings
DYEAR=1992
DGENRE=Blues
TTITLE0=Lil' Son Jackson - Gambling Blues
TTITLE1=Lil' Son Jackson - Homeless Blues
TTITLE2=Lil' Son Jackson - Cairo Blues
TTITLE3=Lil' Son Jackson - Evil Blues
TTITLE4=Lee Hunter - Back to Santa Fe
TTITLE5=L.C. Williams - Trying, Trying
TTITLE6=L.C. Williams - You Never Miss the Water
TTITLE7=Thunder Smith - Cruel Hearted Woman
TTITLE8=Thunder Smith - Big Stars are Falling
TTITLE9=L.C. Williams - Hole in the Wall
TTITLE10=L.C. Williams - Boogie All the Time
TTITLE11=Leroy Ervin - Rock Island Blues
TTITLE12=Leroy Ervin - Blue, Black, and Evil
TTITLE13=Lil' Son Jackson - Roberta Blues
TTITLE14=Lil' Son Jackson - Freedom Train Blues
TTITLE15=Lil' Son Jackson - Ground Hog Blues
TTITLE16=Lil' Son Jackson - Bad Whiskey, Bad Women
TTITLE17=Lil' Son Jackson - Santa Fe Blues
TTITLE18=L.C. Williams - Black Woman
TTITLE19=L.C. Williams - Strike Blues
TTITLE20=L.C. Williams - You Can't Take It With You Baby
TTITLE21=Buddy Chiles - Jet Black Woman
TTITLE22=Lil' Son Jackson - No Money, No Love
TTITLE23=Lil' Son Jackson - Gone With the Wind
TTITLE24=L.C. Williams - I Won't Be Here Long
TTITLE25=Andy Thomas - Angel Child
TTITLE26=Perry Cain - All the Way from Texas
EXTD=YEAR: 1992
EXTT0=
EXTT1=
EXTT2=
EXTT3=
EXTT4=
EXTT5=
EXTT6=
EXTT7=
EXTT8=
EXTT9=
EXTT10=
EXTT11=
EXTT12=
EXTT13=
EXTT14=
EXTT15=
EXTT16=
EXTT17=
EXTT18=
EXTT19=
EXTT20=
EXTT21=
EXTT22=
EXTT23=
EXTT24=
EXTT25=
EXTT26=
PLAYORDER=
